HIERARCHY
ROOT ZeroOut_JNT
{
  OFFSET 0 0 0
  CHANNELS 6 Xposition Yposition Zposition Zrotation Xrotation Yrotation
  JOINT SpineFinal_1_JNT
  {
    OFFSET 0 59.8141 -42.9993
    CHANNELS 6 Xposition Yposition Zposition Zrotation Xrotation Yrotation
    JOINT l_legIKClavicle_Root_JNT
    {
      OFFSET -0.323145 -1.55994 9.59625
      CHANNELS 6 Xposition Yposition Zposition Zrotation Xrotation Yrotation
      JOINT l_legBlendRoot_JNT
      {
        OFFSET 16.1374 0 0
        CHANNELS 6 Xposition Yposition Zposition Zrotation Xrotation Yrotation
        JOINT l_legBlendMiddle_JNT
        {
          OFFSET 27.0969 0 0
          CHANNELS 6 Xposition Yposition Zposition Zrotation Xrotation Yrotation
          JOINT l_legBlendEnd_JNT
          {
            OFFSET 24.8414 0 0
            CHANNELS 6 Xposition Yposition Zposition Zrotation Xrotation Yrotation
            JOINT l_legBlendTip_JNT
            {
              OFFSET 6.77858 0 0
              CHANNELS 6 Xposition Yposition Zposition Zrotation Xrotation Yrotation
              End Site
              {
                OFFSET 0 0 0
              }
            }
          }
        }
      }
    }
    JOINT SpineFinal_2_JNT
    {
      OFFSET -19.5366 0.0587492 -0.00256357
      CHANNELS 6 Xposition Yposition Zposition Zrotation Xrotation Yrotation
      JOINT SpineFinal_3_JNT
      {
        OFFSET -19.4679 1.47333 -0.00136182
        CHANNELS 6 Xposition Yposition Zposition Zrotation Xrotation Yrotation
        JOINT SpineFinal_4_JNT
        {
          OFFSET -18.2335 5.20609 0
          CHANNELS 6 Xposition Yposition Zposition Zrotation Xrotation Yrotation
          JOINT SpineFinal_5_JNT
          {
            OFFSET -17.3574 8.01768 -1.82773e-005
            CHANNELS 6 Xposition Yposition Zposition Zrotation Xrotation Yrotation
            JOINT SpineFinal_6_JNT
            {
              OFFSET -19.144 8.35871 0
              CHANNELS 6 Xposition Yposition Zposition Zrotation Xrotation Yrotation
              JOINT SpineFinal_7_JNT
              {
                OFFSET -16.3943 7.24542 0
                CHANNELS 6 Xposition Yposition Zposition Zrotation Xrotation Yrotation
                JOINT SpineFinal_8_JNT
                {
                  OFFSET -19.3877 2.40349 0
                  CHANNELS 6 Xposition Yposition Zposition Zrotation Xrotation Yrotation
                  JOINT head_JNT
                  {
                    OFFSET -13.796 -11.6756 0
                    CHANNELS 6 Xposition Yposition Zposition Zrotation Xrotation Yrotation
                    JOINT l_hornRoot_JNT
                    {
                      OFFSET -15.825 14.8229 15.3879
                      CHANNELS 6 Xposition Yposition Zposition Zrotation Xrotation Yrotation
                      JOINT l_hornMid_JNT
                      {
                        OFFSET 6.55118 0 0
                        CHANNELS 6 Xposition Yposition Zposition Zrotation Xrotation Yrotation
                        JOINT l_hornEnd_JNT
                        {
                          OFFSET 6.73503 0 0
                          CHANNELS 6 Xposition Yposition Zposition Zrotation Xrotation Yrotation
                          End Site
                          {
                            OFFSET 0 0 0
                          }
                        }
                      }
                    }
                    JOINT headJend_JNT
                    {
                      OFFSET 1.34858 -27.5886 0
                      CHANNELS 6 Xposition Yposition Zposition Zrotation Xrotation Yrotation
                      End Site
                      {
                        OFFSET 0 0 0
                      }
                    }
                    JOINT r_hornRoot_JNT
                    {
                      OFFSET -15.825 14.8229 -15.3879
                      CHANNELS 6 Xposition Yposition Zposition Zrotation Xrotation Yrotation
                      JOINT r_hornMid_JNT
                      {
                        OFFSET -2.40814 5.46468 -2.69372
                        CHANNELS 6 Xposition Yposition Zposition Zrotation Xrotation Yrotation
                        JOINT r_hornEnd_JNT
                        {
                          OFFSET -2.40922 6.0083 -1.85921
                          CHANNELS 6 Xposition Yposition Zposition Zrotation Xrotation Yrotation
                          End Site
                          {
                            OFFSET 0 0 0
                          }
                        }
                      }
                    }
                    JOINT m_upLip_JNT
                    {
                      OFFSET 4.72477 -9.87974 0
                      CHANNELS 6 Xposition Yposition Zposition Zrotation Xrotation Yrotation
                      JOINT l_lipUpRoot_JNT
                      {
                        OFFSET 2.68891 -0.690234 4.02874
                        CHANNELS 6 Xposition Yposition Zposition Zrotation Xrotation Yrotation
                        JOINT l_lipUpEnd_JNT
                        {
                          OFFSET 0 0 -14.9226
                          CHANNELS 6 Xposition Yposition Zposition Zrotation Xrotation Yrotation
                          End Site
                          {
                            OFFSET 0 0 0
                          }
                        }
                      }
                      JOINT m_upLipRoot_JNT
                      {
                        OFFSET 0 0 3.94939
                        CHANNELS 6 Xposition Yposition Zposition Zrotation Xrotation Yrotation
                        JOINT m_upLipEnd_JNT
                        {
                          OFFSET 0 0 15.0019
                          CHANNELS 6 Xposition Yposition Zposition Zrotation Xrotation Yrotation
                          End Site
                          {
                            OFFSET 0 0 0
                          }
                        }
                      }
                      JOINT r_lipUpRoot_JNT
                      {
                        OFFSET -2.689 -0.690236 4.02875
                        CHANNELS 6 Xposition Yposition Zposition Zrotation Xrotation Yrotation
                        JOINT r_lipUpEnd_JNT
                        {
                          OFFSET 9.35075e-005 -0.000392738 14.9226
                          CHANNELS 6 Xposition Yposition Zposition Zrotation Xrotation Yrotation
                          End Site
                          {
                            OFFSET 0 0 0
                          }
                        }
                      }
                    }
                    JOINT m_DnLip_JNT
                    {
                      OFFSET 6.0207 -9.81639 0
                      CHANNELS 6 Xposition Yposition Zposition Zrotation Xrotation Yrotation
                      JOINT l_lipDn_JNT
                      {
                        OFFSET 2.71301 -0.162748 3.99146
                        CHANNELS 6 Xposition Yposition Zposition Zrotation Xrotation Yrotation
                        JOINT l_lipEnd_JNT
                        {
                          OFFSET 0 0 -14.9599
                          CHANNELS 6 Xposition Yposition Zposition Zrotation Xrotation Yrotation
                          End Site
                          {
                            OFFSET 0 0 0
                          }
                        }
                      }
                      JOINT m_dnLip_JNT
                      {
                        OFFSET 0 -0.0431035 3.99141
                        CHANNELS 6 Xposition Yposition Zposition Zrotation Xrotation Yrotation
                        JOINT m_dnLipEnd_JNT
                        {
                          OFFSET 0 0 14.9599
                          CHANNELS 6 Xposition Yposition Zposition Zrotation Xrotation Yrotation
                          End Site
                          {
                            OFFSET 0 0 0
                          }
                        }
                      }
                      JOINT r_lipDn_JNT
                      {
                        OFFSET -2.71301 -0.162761 3.99141
                        CHANNELS 6 Xposition Yposition Zposition Zrotation Xrotation Yrotation
                        JOINT r_lipDnEnd_JNT
                        {
                          OFFSET 0 0 14.9599
                          CHANNELS 6 Xposition Yposition Zposition Zrotation Xrotation Yrotation
                          End Site
                          {
                            OFFSET 0 0 0
                          }
                        }
                      }
                    }
                    JOINT l_lid_JNT
                    {
                      OFFSET -7.85698 -6.72885 9.63956
                      CHANNELS 6 Xposition Yposition Zposition Zrotation Xrotation Yrotation
                      End Site
                      {
                        OFFSET 0 0 0
                      }
                    }
                    JOINT r_lid_JNT
                    {
                      OFFSET -7.85684 -6.72882 -9.63956
                      CHANNELS 6 Xposition Yposition Zposition Zrotation Xrotation Yrotation
                      End Site
                      {
                        OFFSET 0 0 0
                      }
                    }
                  }
                }
              }
            }
            JOINT l_FwClavicleRoot_JNT
            {
              OFFSET -0.15532 -4.55898 6.72563
              CHANNELS 6 Xposition Yposition Zposition Zrotation Xrotation Yrotation
              JOINT l_FwLegBlendRoot_JNT
              {
                OFFSET 21.051 0 0
                CHANNELS 6 Xposition Yposition Zposition Zrotation Xrotation Yrotation
                JOINT l_FwLegBlendMiddle_JNT
                {
                  OFFSET 33.1145 0 0
                  CHANNELS 6 Xposition Yposition Zposition Zrotation Xrotation Yrotation
                  JOINT l_FwLegBlendTip_JNT
                  {
                    OFFSET 29.9221 0 0
                    CHANNELS 6 Xposition Yposition Zposition Zrotation Xrotation Yrotation
                    JOINT l_FwLegBlendEnd_JNT
                    {
                      OFFSET 9.62649 0 0
                      CHANNELS 6 Xposition Yposition Zposition Zrotation Xrotation Yrotation
                      End Site
                      {
                        OFFSET 0 0 0
                      }
                    }
                  }
                }
              }
            }
            JOINT r_FwClavicleRoot_JNT
            {
              OFFSET -0.15532 -4.55898 -6.72563
              CHANNELS 6 Xposition Yposition Zposition Zrotation Xrotation Yrotation
              JOINT r_FwLegBlendRoot_JNT
              {
                OFFSET 1.1653 -12.7157 -16.7361
                CHANNELS 6 Xposition Yposition Zposition Zrotation Xrotation Yrotation
                JOINT r_FwLegBlendMiddle_JNT
                {
                  OFFSET 16.2308 -5.97551 28.2387
                  CHANNELS 6 Xposition Yposition Zposition Zrotation Xrotation Yrotation
                  JOINT r_FwLegBlendTip_JNT
                  {
                    OFFSET 26.7017 -9.19239 -9.89204
                    CHANNELS 6 Xposition Yposition Zposition Zrotation Xrotation Yrotation
                    JOINT r_FwLegBlendEnd_JNT
                    {
                      OFFSET 4.44874 -7.74942 3.58114
                      CHANNELS 6 Xposition Yposition Zposition Zrotation Xrotation Yrotation
                      End Site
                      {
                        OFFSET 0 0 0
                      }
                    }
                  }
                }
              }
            }
          }
        }
      }
    }
    JOINT r_legIKClavicle_Root_JNT
    {
      OFFSET -0.323145 -1.55994 -9.59625
      CHANNELS 6 Xposition Yposition Zposition Zrotation Xrotation Yrotation
      JOINT r_legBlendRoot_JNT
      {
        OFFSET 13.2848 -5.74129 -7.13912
        CHANNELS 6 Xposition Yposition Zposition Zrotation Xrotation Yrotation
        JOINT r_legBlendMiddle_JNT
        {
          OFFSET 14.815 16.9375 15.0957
          CHANNELS 6 Xposition Yposition Zposition Zrotation Xrotation Yrotation
          JOINT r_legBlendEnd_JNT
          {
            OFFSET 23.6904 -6.58016 -3.54465
            CHANNELS 6 Xposition Yposition Zposition Zrotation Xrotation Yrotation
            JOINT r_legBlendTip_JNT
            {
              OFFSET 1.47758 -6.16068 -2.41079
              CHANNELS 6 Xposition Yposition Zposition Zrotation Xrotation Yrotation
              End Site
              {
                OFFSET 0 0 0
              }
            }
          }
        }
      }
    }
    JOINT tailRoot_JNT
    {
      OFFSET 2.82533 14.5514 0
      CHANNELS 6 Xposition Yposition Zposition Zrotation Xrotation Yrotation
      JOINT tailMid_JNT
      {
        OFFSET 7.87756 0 0
        CHANNELS 6 Xposition Yposition Zposition Zrotation Xrotation Yrotation
        JOINT tailEnd_JNT
        {
          OFFSET 6.52588 0 0
          CHANNELS 6 Xposition Yposition Zposition Zrotation Xrotation Yrotation
          End Site
          {
            OFFSET 0 0 0
          }
        }
      }
    }
    JOINT l_shoulderBkRoot_JNT
    {
      OFFSET -9.30511 7.998 11.2048
      CHANNELS 6 Xposition Yposition Zposition Zrotation Xrotation Yrotation
      JOINT l_shoulderBkMid_JNT
      {
        OFFSET 0 0 0
        CHANNELS 6 Xposition Yposition Zposition Zrotation Xrotation Yrotation
        End Site
        {
          OFFSET 0 0 0
        }
      }
    }
    JOINT r_shoulderBkRoot_JNT
    {
      OFFSET -9.30514 7.99801 -11.2048
      CHANNELS 6 Xposition Yposition Zposition Zrotation Xrotation Yrotation
      JOINT r_shoulderBkMid_JNT
      {
        OFFSET 0 0 0
        CHANNELS 6 Xposition Yposition Zposition Zrotation Xrotation Yrotation
        End Site
        {
          OFFSET 0 0 0
        }
      }
    }
  }
}
MOTION
Frames:	3
Frame Time:	0.0416667
0 0 0 0 0 -0 -0.207654 51.4992 -48.5497 6.23014 1.2572 90.4684 -0.323145 -1.55994 9.59625 -26.4062 61.2999 -67.9538 16.1374 -6.62326e-007 1.71957e-006 -33.7074 5.72687 71.2768 27.0969 2.4869e-014 -4.9738e-014 -1.39996e-014 6.8764e-016 -95.624 24.8414 1.06581e-014 0 -1.43842 4.23612 -27.2795 6.77858 -7.10543e-015 -1.42109e-014 3.03321e-021 7.58303e-022 6.36111e-015 -19.5166 -0.045975 -0.0353289 0.910831 4.81458 -0.379331 -19.1123 1.85605 -0.0293376 -6.69242 1.43274 -0.15798 -17.6824 5.74904 -8.52878e-005 -15.8622 0.00325098 0.000843731 -18.3985 6.11564 0.000726683 -13.2786 0.00108778 0.00305326 -19.1354 8.2308 0.0317544 -21.6935 -1.66691 3.01563 -16.3943 7.24542 2.75335e-014 -21.5128 -4.06345 -1.19571e-014 -19.3877 2.40349 -3.90799e-014 -2.80627 -4.57268 -0.336749 -13.796 -11.6756 3.9968e-014 3.09252e-015 -1.59028e-015 -3.36587 -15.825 14.8229 15.3879 112.717 -2.35881 -24.301 6.55118 1.7053e-013 1.77636e-014 -0.0465243 -7.37415 5.81483 6.73503 0 -4.61853e-014 -3.18055e-015 0 1.59028e-015 1.34858 -27.5886 -1.42109e-014 92.7985 1.27222e-014 -1.43125e-014 -15.825 14.8229 -15.3879 -0.0547522 1.12257 0.470618 -2.40814 5.46468 -2.69372 -26.9378 -0.308009 -7.50507 -2.40922 6.0083 -1.85921 1.59028e-015 3.18055e-015 1.19271e-015 4.72477 -9.87974 1.77636e-015 92.7985 3.50417e-015 -90 2.68891 -0.690234 4.02874 -180 7.01671e-015 -180 -1.77636e-015 -2.84217e-014 -14.9226 -7.95139e-016 -3.18055e-015 3.18055e-015 -5.32907e-015 0 3.94939 7.95139e-016 -1.59028e-015 -0 -5.32907e-015 0 15.0019 1.19271e-015 -1.59028e-015 -1.59028e-015 -2.689 -0.690236 4.02875 7.95139e-016 -1.59028e-015 -0 9.35075e-005 -0.000392738 14.9226 1.19271e-015 -1.59028e-015 -1.59028e-015 6.0207 -9.81639 1.77636e-015 92.7985 3.50417e-015 -90 2.71301 -0.162748 3.99146 -180 7.01671e-015 -180 0 -2.84217e-014 -14.9599 -7.95139e-016 -3.18055e-015 3.18055e-015 0 -0.0431035 3.99141 7.95139e-016 -1.59028e-015 -0 0 2.84217e-014 14.9599 1.19271e-015 -1.59028e-015 -1.59028e-015 -2.71301 -0.162761 3.99141 7.95139e-016 -1.59028e-015 -0 3.55271e-015 0 14.9599 1.19271e-015 -1.59028e-015 -1.59028e-015 -7.85698 -6.72885 9.63956 34.106 19.9417 85.9622 -7.85684 -6.72882 -9.63956 -145.894 19.9417 85.9622 -1.24394 -4.84942 6.41917 40.4209 25.5395 -116.896 21.051 3.26784e-008 -2.83576e-007 50.8928 -53.0934 117.145 33.1145 8.3753e-007 -2.8019e-007 115.483 7.01671e-015 180 29.9221 1.06581e-014 -3.55271e-015 23.8872 -5.06721 6.45251 9.62649 2.13163e-014 3.55271e-015 29.859 -1.7467e-015 90 0.0176943 -4.49134 -8.22302 -32.3715 12.0922 -11.9146 1.1653 -12.7157 -16.7361 111.286 -59.5307 174.763 16.2308 -5.97551 28.2387 141.988 6.74558 159.905 26.7017 -9.19239 -9.89204 26.4716 22.3063 2.1834 4.44874 -7.74942 3.58114 29.859 -1.7467e-015 90 -0.320961 -1.54177 -9.06544 -63.31 -11.4503 1.40569 13.2848 -5.74129 -7.13912 3.14303 0.19781 35.8113 14.815 16.9375 15.0957 -40.7108 33.6081 -41.2616 23.6904 -6.58016 -3.54465 23.8507 10.6011 -41.2397 1.47758 -6.16068 -2.41079 1.19271e-015 -2.38542e-015 5.96354e-016 2.82533 14.5514 5.32907e-014 4.99157 -1.93815e-015 8.58654 7.87756 0 0 19.1217 -1.59028e-015 6.70048 6.52588 1.42109e-014 -3.55271e-015 -5.13753 -4.58564 12.0996 -9.30511 7.998 11.2048 -6.8505 -4.18474e-016 -90 0 0 0 -3.10601e-016 0 -0 -9.30514 7.99801 -11.2048 173.149 4.18474e-016 -90 0 0 0 4.28629e-016 0 -9.93923e-017 
0 0 0 0 0 -0 -0.127453 55.2519 -47.1134 6.23014 1.2572 90.4684 -0.323145 -1.55994 9.59625 -26.4062 61.2999 -67.9538 16.1374 -6.78048e-007 1.71491e-006 -33.7074 5.72687 71.2768 27.0969 7.10543e-015 -4.26326e-014 -1.39996e-014 6.8764e-016 -95.624 24.8414 3.55271e-015 1.42109e-014 -1.43842 4.23612 -27.2795 6.77858 -7.10543e-015 -1.42109e-014 3.03321e-021 7.58303e-022 6.36111e-015 -19.5234 -0.0215729 -0.0202984 0.531013 2.89398 -0.208144 -19.2454 1.88792 -0.0181706 -6.69242 1.43274 -0.15798 -18.053 5.77162 -3.58649e-005 -15.8622 0.00325098 0.000843731 -18.2369 6.63991 0.000313309 -13.2786 0.00108778 0.00305326 -19.1355 8.30049 0.0161098 -21.6935 -1.66691 3.01563 -16.3943 7.24542 2.57572e-014 -21.5128 -4.06345 -1.27543e-014 -19.3877 2.40349 -3.64153e-014 -2.80627 -4.57268 -0.336749 -13.796 -11.6756 3.55271e-014 -2.29452e-016 -6.36111e-015 -2.06582 -15.825 14.8229 15.3879 112.717 -2.35881 -24.301 6.55118 1.7053e-013 8.88178e-015 -0.0465243 -7.37415 5.81483 6.73503 2.84217e-014 -4.9738e-014 6.36111e-015 0 -1.59028e-015 1.34858 -27.5886 -1.24345e-014 92.7985 1.27222e-014 -1.59028e-014 -15.825 14.8229 -15.3879 -0.0325101 0.689038 0.288706 -2.40814 5.46468 -2.69372 -26.9378 -0.308009 -7.50507 -2.40922 6.0083 -1.85921 4.77083e-015 0 -7.95139e-016 4.72477 -9.87974 3.55271e-015 92.7985 3.50417e-015 -90 2.68891 -0.690234 4.02874 180 7.01671e-015 -180 1.77636e-015 -2.84217e-014 -14.9226 1.19271e-015 0 -0 -1.77636e-015 0 3.94939 -3.97569e-016 1.59028e-015 -0 1.77636e-015 2.84217e-014 15.0019 -3.97569e-016 1.59028e-015 -0 -2.689 -0.690236 4.02875 -3.97569e-016 1.59028e-015 -0 9.35075e-005 -0.000392738 14.9226 -3.97569e-016 1.59028e-015 -0 6.0207 -9.81639 3.55271e-015 92.7985 3.50417e-015 -90 2.71301 -0.162748 3.99146 180 7.01671e-015 -180 0 0 -14.9599 1.19271e-015 0 -0 -1.77636e-015 -0.0431035 3.99141 -3.97569e-016 1.59028e-015 -0 0 2.84217e-014 14.9599 -3.97569e-016 1.59028e-015 -0 -2.71301 -0.162761 3.99141 -3.97569e-016 1.59028e-015 -0 0 2.84217e-014 14.9599 -3.97569e-016 1.59028e-015 -0 -7.85698 -6.72885 9.63956 34.106 19.9417 85.9622 -7.85684 -6.72882 -9.63956 -145.894 19.9417 85.9622 -0.378559 -4.79694 6.55805 40.4209 25.5395 -116.896 21.051 8.52589e-009 -7.33835e-008 50.8928 -53.0934 117.145 33.1145 8.3753e-007 -2.8019e-007 115.483 7.01671e-015 180 29.9221 2.13163e-014 -2.4869e-014 23.8872 -5.06721 6.45251 9.62649 2.13163e-014 3.55271e-015 29.859 -1.7467e-015 90 0.387991 -4.51865 -7.64603 -32.3715 12.0922 -11.9146 1.1653 -12.7157 -16.7361 111.286 -59.5307 174.763 16.2308 -5.97551 28.2387 141.988 6.74558 159.905 26.7017 -9.19239 -9.89204 26.4716 22.3063 2.1834 4.44874 -7.74942 3.58114 29.859 -1.7467e-015 90 -0.322322 -1.5531 -9.2703 -63.31 -11.4503 1.40569 13.2848 -5.74129 -7.13912 3.14303 0.19781 35.8113 14.815 16.9375 15.0957 -40.7108 33.6081 -41.2616 23.6904 -6.58016 -3.54465 23.8507 10.6011 -41.2397 1.47758 -6.16068 -2.41079 1.19271e-015 -2.38542e-015 5.96354e-016 2.82533 14.5514 9.76996e-015 4.99157 -1.93815e-015 8.58654 7.87756 7.10543e-015 0 19.1217 -1.59028e-015 6.70048 6.52588 -1.42109e-014 0 -3.38474 -2.85413 7.41131 -9.30511 7.998 11.2048 -6.8505 -4.18474e-016 -90 0 0 0 -3.10601e-016 0 -0 -9.30514 7.99801 -11.2048 173.149 4.18474e-016 -90 0 0 0 4.28629e-016 0 -9.93923e-017 
0 0 0 0 0 -0 -0.0406544 59.1998 -44.4406 3.75077 1.67814 90.2613 -0.323145 -1.55994 9.59625 -26.4062 61.2999 -67.9538 16.1374 -6.8785e-007 1.70836e-006 -30.9193 7.58952 66.1904 27.0969 1.42109e-014 -2.84217e-014 -2.6354e-015 1.98785e-015 -85.5431 24.8414 0 7.10543e-015 -0.720865 2.60159 -33.2301 6.77858 0 -1.42109e-014 -2.10471e-038 -3.79152e-022 -3.18055e-015 -19.5338 -0.00546576 -0.00619372 0.163154 0.911684 -0.0588949 -19.3591 1.95067 -0.00565537 -6.1703 0.868238 -0.105327 -18.3909 5.79207 -8.40977e-006 -16.601 0.00132238 0.000394077 -18.0857 7.07509 7.57499e-005 -17.4358 0.000378943 0.00133579 -19.1407 8.34382 0.00452663 -22.6604 -0.820944 1.32038 -16.3943 7.24542 2.58682e-014 -22.4128 -2.49397 -1.25851e-014 -19.3877 2.40349 -3.55271e-014 -4.44554 -2.80654 -0.206272 -13.796 -11.6756 3.15303e-014 0 0 -0.658927 -15.825 14.8229 15.3879 112.717 -2.35881 -24.301 6.55118 1.42109e-013 1.06581e-014 -0.0250081 -7.4608 4.36444 6.73503 2.84217e-014 -5.32907e-014 0 7.95139e-016 -0 1.34858 -27.5886 -1.15463e-014 92.7985 1.3418e-014 -1.66979e-014 -15.825 14.8229 -15.3879 -0.0099923 0.219797 0.092043 -2.40814 5.46468 -2.69372 -30.4033 -1.51102 -9.54978 -2.40922 6.0083 -1.85921 -2.20695e-032 1.59028e-015 7.95139e-016 4.72477 -9.87974 0 92.7985 3.50417e-015 -90 2.68891 -0.690234 4.02874 -180 7.01671e-015 -180 -8.88178e-016 -2.84217e-014 -14.9226 0 0 -0 8.88178e-016 5.68434e-014 3.94939 3.97569e-016 7.95139e-016 -7.95139e-016 -1.77636e-015 -2.84217e-014 15.0019 9.93923e-017 0 -0 -2.689 -0.690236 4.02875 3.97569e-016 7.95139e-016 -7.95139e-016 9.35075e-005 -0.000392738 14.9226 9.93923e-017 0 -0 6.0207 -9.81639 -8.88178e-016 92.7985 3.50417e-015 -90 2.71301 -0.162748 3.99146 -180 7.01671e-015 -180 0 2.84217e-014 -14.9599 0 0 -0 0 -0.0431035 3.99141 3.97569e-016 7.95139e-016 -7.95139e-016 0 2.84217e-014 14.9599 9.93923e-017 0 -0 -2.71301 -0.162761 3.99141 3.97569e-016 7.95139e-016 -7.95139e-016 8.88178e-016 2.84217e-014 14.9599 9.93923e-017 0 -0 -7.85698 -6.72885 9.63956 34.106 19.9417 85.9622 -7.85684 -6.72882 -9.63956 -145.894 19.9417 85.9622 0.400571 -4.61521 6.67938 46.1663 25.7456 -115.243 21.051 2.71166e-008 1.33408e-007 60.2302 -58.953 125.926 33.1145 8.3753e-007 -2.8019e-007 128.384 -7.01671e-015 180 29.9221 4.9738e-014 -1.42109e-014 31.0773 -2.99276 3.98892 9.62649 2.4869e-014 7.10543e-015 29.859 -1.7467e-015 90 0.643573 -4.51343 -7.01945 -27.5954 11.0569 -14.2706 1.1653 -12.7157 -16.7361 100.633 -61.6033 167.136 16.2308 -5.97551 28.2387 141.038 3.10257 170.941 26.7017 -9.19239 -9.89204 31.4352 14.2971 -1.57355 4.44874 -7.74942 3.58114 29.859 -1.7467e-015 90 -0.323061 -1.55925 -9.49226 -63.0625 -10.6045 2.69935 13.2848 -5.74129 -7.13912 -2.82988 3.42303 37.6742 14.815 16.9375 15.0957 -28.9795 26.2746 -47.1442 23.6904 -6.58016 -3.54465 17.8487 8.1195 -41.3553 1.47758 -6.16068 -2.41079 7.95139e-016 1.59028e-015 5.01931e-015 2.82533 14.5514 -3.55271e-015 4.99157 -2.12451e-015 5.27005 7.87756 -4.26326e-014 -1.77636e-015 19.1217 0 4.11246 6.52588 0 0 -1.16016 -0.917245 2.36131 -9.30511 7.998 11.2048 -6.8505 -4.18474e-016 -90 0 0 0 6.55368e-016 -1.59028e-015 9.93923e-017 -9.30514 7.99801 -11.2048 173.149 4.18474e-016 -90 0 0 0 2.88859e-016 0 -0 
